Coordinates
version=1
nRows=4
nColumns=63
inDegrees=yes

Units are S.I. units (second, meters, Newtons, ...)
If the header above contains a line with 'inDegrees', this indicates whether rotational values are in degrees (yes) or radians (no).

endheader
time	pelvis_tilt	pelvis_list	pelvis_rotation	pelvis_tx	pelvis_ty	pelvis_tz	hip_flexion_r	hip_adduction_r	hip_rotation_r	knee_angle_r	knee_angle_r_beta	ankle_angle_r	subtalar_angle_r	mtp_angle_r	hip_flexion_l	hip_adduction_l	hip_rotation_l	knee_angle_l	knee_angle_l_beta	ankle_angle_l	subtalar_angle_l	mtp_angle_l	L5_S1_Flex_Ext	L5_S1_Lat_Bending	L5_S1_axial_rotation	L4_L5_Flex_Ext	L4_L5_Lat_Bending	L4_L5_axial_rotation	L3_L4_Flex_Ext	L3_L4_Lat_Bending	L3_L4_axial_rotation	L2_L3_Flex_Ext	L2_L3_Lat_Bending	L2_L3_axial_rotation	L1_L2_Flex_Ext	L1_L2_Lat_Bending	L1_L2_axial_rotation	L1_T12_Flex_Ext	L1_T12_Lat_Bending	L1_T12_axial_rotation	Abs_r3	Abs_r2	Abs_r1	Abs_t1	Abs_t2	neck_flexion	neck_bending	neck_rotation	arm_flex_r	arm_add_r	arm_rot_r	elbow_flex_r	pro_sup_r	wrist_flex_r	wrist_dev_r	arm_flex_l	arm_add_l	arm_rot_l	elbow_flex_l	pro_sup_l	wrist_flex_l	wrist_dev_l
      0.00000000	     -2.39689161	     -3.30791377	     94.28744155	      0.19851227	      0.73201989	      0.61705472	     -0.91500775	     -2.92299206	    -23.76640395	      9.51643218	      0.16609307	     12.45733796	     15.79246581	      0.00000000	      1.87873458	      2.59273255	    -10.05182599	      9.69958588	      0.16928971	     10.05411961	      4.51265420	      0.00000000	      0.12740268	     -0.03359385	      1.97649036	      0.23659951	     -0.04467981	      2.10002100	      0.20930986	     -0.08168008	      2.10002100	      0.14560852	     -0.08168008	      1.72942906	      0.11830613	     -0.06850457	      1.60589842	      0.07279789	     -0.05203687	      1.48236777	      0.91002459	     -0.38002030	     10.99264642	      0.00000000	      0.00000000	     27.36870346	      9.09342673	     10.97927918	    -54.83435346	   -117.35008786	   -131.04689398	     89.61716622	     84.80097039	    -25.97939910	      5.81478126	    -66.29228839	   -141.79200635	   -136.39575833	     75.00986073	     86.90371210	    -25.78225213	      9.76687640
      0.01960784	     -2.47821559	     -3.24302297	     94.76321224	      0.19802917	      0.73172958	      0.61396363	     -1.20504075	     -3.01494674	    -23.68116361	      9.89034426	      0.17261907	     12.53742274	     15.60746330	      0.00000000	      1.39306128	      2.57417976	    -11.07429809	      9.40657113	      0.16417564	     10.09799752	      6.23125897	      0.00000000	      0.14757755	     -0.03453041	      1.66548023	      0.27406628	     -0.04592544	      1.76957274	      0.24245516	     -0.08395724	      1.76957274	      0.16866639	     -0.08395724	      1.45729520	      0.13704052	     -0.07041441	      1.35320269	      0.08432581	     -0.05348760	      1.24911017	      1.05413171	     -0.39061489	      9.26290139	      0.00000000	      0.00000000	     27.61321017	      9.08200806	     11.94545718	    -55.20608312	   -118.98884878	   -131.40840310	     88.80141245	     84.33198920	    -26.47272952	      4.25202100	    -64.71492106	   -139.42918104	   -134.58860320	     76.15214696	     86.69642050	    -25.14690594	     11.37651365
      0.03921569	     -2.49553753	     -3.23099144	     94.94569305	      0.19784094	      0.73142122	      0.61169394	     -1.33817432	     -3.05368687	    -23.44891352	     10.12159011	      0.17665507	     12.57981324	     15.73592514	      0.00000000	      1.08702577	      2.58494841	    -11.20421126	      9.22921609	      0.16108021	      9.89402561	      6.33853284	      0.00000000	      0.18001208	     -0.03403402	      1.56683518	      0.33430043	     -0.04526524	      1.66476238	      0.29574185	     -0.08275030	      1.66476238	      0.20573581	     -0.08275030	      1.37098078	      0.16715922	     -0.06940216	      1.27305358	      0.10285890	     -0.05271869	      1.17512638	      1.28580829	     -0.38499958	      8.71426721	      0.00000000	      0.00000000	     27.79535169	      8.88259627	     11.38258431	    -54.84855658	   -119.73196822	   -131.24438349	     88.20799306	     84.48380905	    -26.38474654	      4.12193717	    -64.21281543	   -138.95184968	   -134.45288809	     76.08486494	     86.69422625	    -25.07705307	     11.43432012
      0.05882353	     -2.43433377	     -3.04709210	     95.59508514	      0.19686806	      0.73127910	      0.60970242	     -1.68627457	     -2.96986299	    -23.85561447	     10.31210772	      0.17998023	     12.87405221	     15.70922168	      0.00000000	      0.65079271	      2.46331299	    -11.23569220	      9.09106172	      0.15866896	      9.92972014	      7.33741820	      0.00000000	      0.18153797	     -0.00988847	      1.29089527	      0.33713417	     -0.01315166	      1.37157623	      0.29824874	     -0.02404282	      1.37157623	      0.20747975	     -0.02404282	      1.12953336	      0.16857616	     -0.02016456	      1.04885241	      0.10373080	     -0.01531723	      0.96817145	      1.29670759	     -0.11186031	      7.17957223	      0.00000000	      0.00000000	     27.97949451	      7.44413909	     10.35563044	    -54.57442978	   -121.23101250	   -130.80917013	     86.70023332	     85.41217322	    -27.45451110	      1.48848074	    -62.56072061	   -137.28187884	   -132.19699642	     76.40817107	     86.32205146	    -25.90037892	     12.03401881
